<?xml version="1.0" encoding="UTF-8" standalone="no"?>
<!-- Created with Inkscape (http://www.inkscape.org/) -->

<svg
   version="1.1"
   id="svg1"
   width="1024"
   height="1024"
   viewBox="0 0 1024 1024"
   sodipodi:docname="cover.svg"
   inkscape:version="1.4.2 (f4327f4, 2025-05-13)"
   xmlns:inkscape="http://www.inkscape.org/namespaces/inkscape"
   xmlns:sodipodi="http://sodipodi.sourceforge.net/DTD/sodipodi-0.dtd"
   xmlns="http://www.w3.org/2000/svg"
   xmlns:svg="http://www.w3.org/2000/svg">
  <defs
     id="defs1">
    <rect
       x="480.65306"
       y="158.82449"
       width="165.79048"
       height="84.985034"
       id="rect9" />
    <rect
       x="83.591837"
       y="117.02857"
       width="576.78367"
       height="121.20816"
       id="rect8" />
  </defs>
  <sodipodi:namedview
     id="namedview1"
     pagecolor="#ffffff"
     bordercolor="#111111"
     borderopacity="1"
     inkscape:showpageshadow="0"
     inkscape:pageopacity="0"
     inkscape:pagecheckerboard="1"
     inkscape:deskcolor="#d1d1d1"
     showgrid="false"
     inkscape:zoom="0.71777344"
     inkscape:cx="528.02177"
     inkscape:cy="518.96599"
     inkscape:window-width="1920"
     inkscape:window-height="974"
     inkscape:window-x="-11"
     inkscape:window-y="-11"
     inkscape:window-maximized="1"
     inkscape:current-layer="layer2" />
  <g
     inkscape:groupmode="layer"
     id="layer2"
     inkscape:label="Image 2"
     style="display:inline">
    <path
       style="display:inline;fill:#ff0000;fill-opacity:1"
       d="M 0,511.99999 V 0 h 512 512 V 511.99999 1024 H 512 0 Z m 472.88063,280.75 c -2.86566,-5.41949 -11.48401,-17.61117 -15.26083,-21.58828 -2.59688,-2.73459 -7.68403,-6.13726 -13.76173,-9.20488 -12.42065,-6.26912 -13.86141,-8.07351 -13.84702,-17.3417 0.0187,-12.04555 7.31796,-60.07207 11.976,-78.79787 4.71853,-18.96895 10.69094,-24.7173 42.8126,-41.20641 26.77122,-13.74255 35.66218,-19.84872 50.24767,-34.50926 12.41398,-12.47786 20.94534,-25.35539 26.91749,-40.63017 3.72548,-9.52858 6.52564,-19.31431 5.74897,-20.09099 -0.51341,-0.5134 -23.37194,6.45525 -44.21378,13.47902 -9.9,3.33633 -26.1,8.75476 -36,12.04096 -26.42616,8.77188 -25.49655,8.28506 -25.51736,13.363 -0.052,12.69298 -7.17242,30.32493 -16.1452,39.97971 -3.35436,3.60933 -9.23861,8.10203 -15.83744,12.0921 l -10.5,6.34896 -0.69476,10.40791 c -3.23418,48.45017 -3.70353,53.16636 -8.84804,88.9079 -1.62288,11.275 -2.95216,21.80539 -2.95395,23.40086 -0.003,2.36941 1.8288,4.66011 9.99675,12.50352 l 10,9.60265 v 8.68139 c 0,4.77476 0.43385,9.8225 0.96412,11.21721 0.95639,2.5155 1.07056,2.53831 14.25,2.84672 7.30723,0.171 17.46421,0.40917 22.57106,0.52928 l 9.28519,0.21837 z m 276.49546,-1 c -5.3405,-10.36065 -19.3588,-27.75 -22.3705,-27.75 -0.523,0 -3.4925,-1.20338 -6.5989,-2.67418 -8.7577,-4.14658 -9.6765,-6.26808 -9.0196,-20.82582 0.511,-11.32429 2.2201,-23.52963 4.5038,-32.1624 0.5584,-2.11068 2.1654,-11.72554 3.5712,-21.36636 2.2038,-15.1133 6.1862,-31.2649 10.9652,-44.47124 0.6455,-1.7838 0.6021,-1.81082 -0.4015,-0.25 -2.1637,3.36519 -3.2354,1.89049 -2.907,-4 0.6068,-10.88274 -1.9539,-18.25 -6.3433,-18.25 -1.053,0 -5.229,1.37984 -9.2801,3.0663 -8.6098,3.58428 -8.0872,2.31158 -9.0067,21.9337 -1.0897,23.25293 -3.2409,42.09008 -6.8641,60.10549 -4.5562,22.65433 -7.6245,40.76469 -7.625,45.0056 -4e-4,2.9593 1.0311,4.34072 8.1365,10.89705 l 8.1369,7.50814 0.9633,11.49186 c 0.5298,6.32052 1.3234,11.87441 1.7636,12.34197 0.4402,0.46757 8.8328,1.18476 18.6502,1.59377 9.8175,0.40902 19.549,0.81396 21.6256,0.89989 l 3.7757,0.15623 z M 269.71026,779.40203 c 50.54057,-10.27978 87.86813,-48.96984 96.86632,-100.40204 1.75989,-10.05929 1.51389,-27.00628 -0.57582,-39.66782 -2.63831,-15.98544 -8.98698,-32.2753 -18.05713,-46.33218 -5.92468,-9.18205 -19.76462,-23.96247 -28.84372,-30.80378 -14.2564,-10.74253 -36.56709,-20.44373 -53.23686,-23.14862 -9.41396,-1.52754 -31.4565,-1.28305 -40.51085,0.44933 -31.63296,6.05238 -61.55693,26.28136 -79.74926,53.9115 -9.26752,14.07533 -9.02979,13.59974 -13.1716,26.34992 -8.48641,26.1246 -8.62159,54.6219 -0.37597,79.25634 6.31128,18.85546 14.51546,31.78925 29.83914,47.04106 19.93166,19.83818 46.11043,32.39473 73.60549,35.3046 6.79651,0.7193 26.62679,-0.41586 34.21026,-1.95831 z m -40.13969,-18.945 c -24.40681,-4.61633 -50.13073,-20.99546 -64.44476,-41.03377 -22.6435,-31.69879 -25.12321,-69.78779 -6.89591,-105.92327 12.53183,-24.84427 26.90074,-38.21461 52.2701,-48.63758 31.27054,-12.84747 64.69715,-8.06978 95.52188,13.653 18.45778,13.00755 33.86241,36.46755 39.05959,59.48458 5.35089,23.69776 2.74676,44.50299 -8.26102,66 -7.18872,14.03878 -12.76116,21.84432 -21.2919,29.82441 -12.55916,11.74848 -29.3609,21.0281 -45.52855,25.14548 -11.24346,2.86335 -29.58612,3.53806 -40.42943,1.48715 z M 253,722.73078 v -26.2692 l -6.42373,0.0192 c -6.26928,0.0188 -6.43758,0.0883 -7,2.89421 -0.31695,1.58125 -0.57627,13.39375 -0.57627,26.25 v 23.375 h 7 7 z m -45.62495,-15.80359 c 18.14627,-18.09679 19.0226,-19.14523 17.12495,-20.48817 -1.1,-0.77846 -3.218,-2.6012 -4.70666,-4.05053 l -2.70667,-2.63516 -10.43399,9.67559 c -5.73869,5.32157 -14.24532,13.81977 -18.90362,18.88488 l -8.46962,9.20929 3.61028,4.20218 c 1.98565,2.31119 4.00405,4.2185 4.48533,4.23845 0.48128,0.0199 9.48128,-8.54649 20,-19.03653 z m 103.63792,14.55958 4.4294,-4.51322 -11.97119,-12.05695 c -6.58415,-6.63132 -15.4237,-15.19151 -19.64345,-19.02265 l -7.67227,-6.96571 -1.74705,2.95751 c -0.96087,1.62663 -2.79585,3.51882 -4.07773,4.20486 -1.28187,0.68603 -2.33068,1.69155 -2.33068,2.23448 0,1.1361 36.68818,37.6749 37.82893,37.6749 0.41506,0 2.74788,-2.03095 5.18404,-4.51322 z M 256.5,675.63393 c 11.43248,-6.09905 10.96325,-25.5029 -0.79002,-32.66924 -6.19111,-3.77491 -16.96946,-2.16063 -23.02116,3.44789 -10.65733,9.87687 -5.14284,28.13328 9.54677,31.6058 4.39002,1.03777 9.42823,0.19557 14.26441,-2.38445 z M 211,664.13956 c 0,-1.02323 0.28617,-3.94823 0.63592,-6.5 l 0.63593,-4.63957 H 186.13592 160 v 5.83333 c 0,3.20834 0.3,6.13334 0.66667,6.5 0.36666,0.36667 11.84166,0.66667 25.5,0.66667 23.54566,0 24.83333,-0.0965 24.83333,-1.86043 z M 333.41821,665.393 C 334.60848,664.93625 335,663.35344 335,658.99829 v -5.78773 l -15.25356,-0.71488 c -8.38946,-0.39319 -20.16883,-0.49278 -26.17638,-0.22133 l -10.92282,0.49355 -0.0736,6.61482 -0.0736,6.61481 24.66821,10e-4 c 13.56752,6.8e-4 25.38002,-0.27191 26.25,-0.60576 z m -108.781,-32.33789 2.86279,-2.26749 -19.44957,-18.84792 -19.44957,-18.84792 -4.69868,4.2041 c -2.58428,2.31226 -4.74447,4.49028 -4.80043,4.84004 -0.056,0.34976 8.72954,9.26375 19.52334,19.80886 l 19.6251,19.17294 1.76211,-2.89756 c 0.96916,-1.59366 3.05037,-3.91793 4.62491,-5.16505 z m 73.80423,-15.97687 14.63785,-15.42175 -4.21053,-4.29023 -4.21054,-4.29022 -4.07911,3.58069 c -2.24351,1.96938 -10.90262,10.33433 -19.24246,18.58877 l -15.16335,15.00808 4.41335,4.60573 c 2.42734,2.53315 4.41335,5.05768 4.41335,5.61005 0,1.14197 2.93879,-1.7905 23.44144,-23.39112 z M 253,597.49999 v -27.5 h -6.36071 -6.36071 l -0.6306,5.25 c -0.34683,2.8875 -0.63451,15.2625 -0.63929,27.5 l -0.009,22.25 h 7 7 z m 637.6776,25.42525 c 0.6476,-1.88389 2.8214,-10.62525 4.8306,-19.42525 2.0093,-8.8 6.5419,-27.40905 10.0725,-41.35344 7.6002,-30.01732 8.1396,-36.32096 3.6693,-42.88148 -6.0711,-8.91003 -8.7818,-10.06277 -31.25,-13.2896 -23.9023,-3.4328 -46.1556,-8.45183 -53.8076,-12.13579 -2.3691,-1.14062 -6.6279,-4.20738 -9.4638,-6.81503 l -5.1562,-4.74119 0.2996,-8.66971 c 0.355,-10.27212 -1.5656,-22.61376 -3.5191,-22.61376 -0.7298,0 -29.79521,9.27729 -64.58991,20.61619 -34.7946,11.3389 -68.213,22.16488 -74.263,24.05772 -6.05,1.89284 -19.1,6.08196 -28.99999,9.30916 -9.9,3.2272 -24.3,7.7628 -32,10.07912 -7.7,2.31631 -14.41233,4.58473 -14.91629,5.04093 -1.64681,1.49075 15.67639,8.86994 27.94621,11.90428 18.14033,4.48613 25.79997,5.31668 43.31617,4.69686 25.2845,-0.89471 37.4638,-4.29187 53.3401,-14.8781 9.6249,-6.41789 8.722,-4.66655 10.3502,-20.07616 0.3341,-3.1625 1.0022,-5.75 1.4845,-5.75 0.4823,0 2.3138,3.01063 4.0699,6.69028 4.8585,10.18009 15.0692,19.88654 27.0216,25.68711 16.757,8.13231 35.949,12.00254 58.88761,11.87516 19.6145,-0.10892 43.7471,-4.12342 61.4066,-10.21508 9.8897,-3.41146 9.9842,-3.35276 9.1926,5.71253 -2.2197,25.42143 -15.4118,79.07982 -20.9294,85.12888 -3.4853,3.82116 -7.8676,5.12112 -17.2636,5.12112 h -8.6581 l 0.5689,20.25 c 0.3129,11.1375 0.8778,21.51777 1.2554,23.06727 0.6654,2.73074 1.3812,2.1142 23.307,-20.07475 15.2029,-15.38524 23.0068,-24.01524 23.7982,-26.31727 z M 390.86428,571.2631 c 1.66449,-0.95529 3.24453,-2.57118 3.51118,-3.59088 0.4033,-1.5422 0.0693,-1.74969 -1.98605,-1.23383 -5.77029,1.44825 -13.3697,4.78447 -12.84226,5.63789 0.95525,1.54562 8.1019,1.03211 11.31713,-0.81318 z m -20.1968,-28.5934 c 8.81666,-8.34571 15.81966,-18.08307 23.85526,-33.16971 20.71914,-38.89965 29.01306,-46.917 55.37701,-53.53035 5.85601,-1.46897 8.20821,-2.64565 11.27493,-5.64022 l 3.87518,-3.78401 -3.66697,-1.26954 c -2.01684,-0.69824 -7.6215,-1.75036 -12.4548,-2.33803 -21.41599,-2.60393 -42.58248,5.52845 -59.06374,22.69289 -5.23926,5.45644 -16.34014,21.4331 -20.33658,29.2689 -4.98309,9.77032 -21.52295,56.95096 -21.52638,61.40489 -0.003,3.25926 13.2242,-4.69728 22.66609,-13.63482 z m 110.95989,-7.75255 c 26.2445,-7.46374 60.60157,-18.33789 79.10994,-25.03863 8.93053,-3.23319 16.89525,-5.87853 17.69939,-5.87853 0.80415,0 11.04736,-3.11448 22.76269,-6.92107 11.71534,-3.80658 31.42561,-10.13755 43.8006,-14.06882 12.375,-3.93127 23.625,-7.52753 25,-7.99169 5.6121,-1.89449 77.4313,-25.20166 89.5,-29.04504 24.6396,-7.84671 44.50821,-15.22703 49.24781,-18.29348 l 4.7522,-3.07458 -8,-1.3103 c -10.03351,-1.64337 -80.90211,-2.85791 -105.89501,-1.81482 l -17.8949,0.74686 -3.6051,3.84647 c -3.5111,3.74627 -11.512,8.25441 -19.605,11.04647 -2.9489,1.01739 -10.0435,1.38 -26.99999,1.38 -25.03436,0 -33.44524,-0.93984 -59,-6.59272 -13.14924,-2.9087 -14.91152,-3.06652 -29,-2.59713 -17.61398,0.58686 -23.01975,1.8572 -37,8.69492 -12.1788,5.95663 -22.96214,14.18288 -30.75599,23.46271 -12.35887,14.7152 -16.94793,30.14471 -16.81386,56.53222 0.0932,18.35219 0.60037,22 3.05851,22 0.97134,0 9.80876,-2.28728 19.63871,-5.08284 z M 347.94958,491.26203 c 3.15165,-0.75229 3.60155,-1.3353 5.20905,-6.75034 0.96771,-3.25981 1.64989,-6.03651 1.51596,-6.17045 C 354.35725,478.02391 306.02708,477.8872 216.25,477.9497 L 144,478 v 6.5 c 0,3.575 0.1125,6.59597 0.25,6.71327 1.58104,1.34878 198.05628,1.39582 203.69958,0.0488 z M 377.5,406.25896 c 4.32564,-2.16304 6.45973,-4.26308 8.60641,-8.46913 3.76752,-7.3818 1.77593,-12.42303 -6.92955,-17.54055 -4.66481,-2.7422 -4.72841,-2.7495 -24.67686,-2.83252 -20.87101,-0.0868 -25.5662,-0.62837 -47,-5.42074 -7.15,-1.59867 -14.73218,-3.18055 -16.8493,-3.51529 -3.69359,-0.584 -3.82613,-0.73749 -3.2768,-3.79468 0.31486,-1.75233 0.86706,-5.09856 1.2271,-7.43606 l 0.65462,-4.25 h -16.99013 -16.99013 l -0.59126,5.25 c -0.32519,2.8875 -1.12671,11.0677 -1.78114,18.17823 l -1.18988,12.92822 2.58693,2.22519 c 1.57414,1.35401 6.23049,3.08745 11.89346,4.42761 13.68888,3.23953 33.22458,3.62469 58.5602,1.15456 11.13952,-1.08606 21.26452,-1.7201 22.5,-1.40899 1.23548,0.31112 3.754,2.30536 5.5967,4.43165 7.01137,8.09039 16.12458,10.33546 24.64963,6.0725 z M 818,403.60905 v -4.25795 l -29.75001,-1.16728 c -16.3625,-0.642 -72.05,-1.3982 -123.75,-1.68044 C 612.8,396.22114 539.45,395.5268 501.5,394.96041 463.55,394.39401 425.975,394.2837 418,394.71529 l -14.5,0.7847 -0.29416,5.01648 -0.29416,5.01648 51.29416,0.29115 c 28.21179,0.16013 64.56916,0.64526 80.79416,1.07806 16.225,0.4328 86.5375,0.82694 156.24999,0.87587 L 818,407.86703 Z m -24.60421,-10.35906 c -0.3532,-1.5125 -3.3288,-9.22581 -6.6123,-17.14068 -7.0938,-17.09941 -10.645,-30.32437 -11.4415,-42.60932 -0.7857,-12.11794 1.2239,-33.26467 3.8206,-40.20514 2.3214,-6.20439 9.4183,-14.29486 12.5393,-14.29486 1.9813,0 2.0297,0.41151 1.5586,13.25 -0.5224,14.2364 0.7342,21.89894 4.9447,30.15213 4.89631,9.59758 20.94111,21.19456 36.25081,26.20164 14.4675,4.73165 22.4837,11.4805 26.4026,22.22866 2.5673,7.04098 6.2606,10.7421 12.0027,12.02816 8.5784,1.92133 17.9242,-3.21092 23.8657,-13.10585 5.1836,-8.63272 5.1949,-8.52859 -3.0379,-27.82416 -9.4594,-22.17056 -23.3684,-50.57449 -28.7809,-58.77429 -5.6697,-8.58964 -13.9853,-17.39664 -21.4661,-22.73489 -3.4094,-2.43286 -6.7169,-5.04758 -7.3501,-5.8105 -1.2306,-1.48283 0.1012,-3.46013 8.358,-12.40908 5.9761,-6.47709 13.55,-18.3058 13.55,-21.16198 0,-1.83343 -3.9419,-1.12192 -11.7172,2.11494 -9.6917,4.03467 -20.1542,11.04657 -29.4854,19.76087 -7.354,6.86783 -7.3908,6.88711 -16.33401,8.5479 -13.1437,2.44085 -24.9046,6.03715 -33.9634,10.38543 -14.2754,6.8523 -33.329,22.9142 -41.1052,34.65102 -1.822,2.75 -4.2212,6.125 -5.3315,7.5 -1.1104,1.375 -2.0288,2.9744 -2.0411,3.55422 -0.012,0.57982 -1.4368,3.27982 -3.1657,6 -6.6383,10.44443 -13.4794,38.18534 -14.5303,58.92084 l -0.6274,12.37781 3.4006,0.5253 c 1.8703,0.28892 7.4506,0.79347 12.4006,1.12122 4.95,0.32776 17.1,1.49507 27,2.59403 9.9,1.09896 24.9048,2.60479 33.344,3.3463 8.4391,0.74151 15.8416,1.84592 16.45,2.45424 1.6404,1.64048 1.8099,1.38768 1.1018,-1.64396 z M 851.903,309.99747 c -5.9239,-1.01535 -10.033,-3.17489 -13.1979,-6.93616 -2.9445,-3.49933 -4.9877,-9.04797 -4.5269,-12.29397 0.2887,-2.03422 0.9387,-2.29377 6.3218,-2.5243 4.7384,-0.20293 6.8405,0.22397 9.9972,2.03022 4.9867,2.85343 8.4031,8.82642 8.7454,15.28998 0.2918,5.51078 -0.01,5.69109 -7.3396,4.43423 z m -722.02155,64.73139 c 7.15574,-9.64634 23.67801,-26.56144 34.41387,-35.23209 28.80048,-23.26025 71.99775,-41.94537 105.34957,-45.56929 15.78567,-1.71523 27.96463,-0.7437 46.8802,3.73969 1.60498,0.38041 2.40394,-0.3787 3.85132,-3.65927 1.7721,-4.01655 1.77135,-4.18066 -0.0251,-5.53609 -3.35078,-2.5282 -18.70188,-8.21126 -26.85132,-9.9405 -4.87345,-1.03411 -14.83932,-1.90205 -25.5,-2.22085 -14.86675,-0.44457 -19.45151,-0.20152 -30.46933,1.61523 -16.1852,2.66881 -30.1694,7.30181 -45.82574,15.18219 -17.12495,8.61958 -27.78051,15.93728 -38.39048,26.36465 -20.1249,19.77856 -28.66171,35.46346 -32.78855,60.24327 -0.8962,5.38131 -1.85416,10.68419 -2.1288,11.78419 -0.27464,1.1 0.59824,-0.0683 1.93974,-2.59624 1.3415,-2.52794 5.63658,-8.90664 9.54461,-14.17489 z m 549.48824,4.02113 c 0.3317,-1.2375 0.6091,-3.72468 0.6167,-5.52707 l 0.014,-3.27707 -8.9961,0.27707 c -9.8448,0.30321 -9.5188,0.0292 -8.3621,7.02707 l 0.6198,3.75 h 7.7526 c 7.1943,0 7.7959,-0.162 8.3555,-2.25 z m -323.99913,-20.48457 2.87056,-0.84009 -3.94097,-2.60801 c -5.96616,-3.94822 -19.30973,-15.98816 -20.85479,-18.81733 -1.26674,-2.31956 -1.36817,-2.00806 -1.40532,4.31574 -0.0489,8.31682 -0.75708,9.74235 -6.51721,13.11801 -6.5533,3.84049 -5.99205,4.80115 3.47717,5.95158 5.10497,0.62022 23.02503,-0.14081 26.37056,-1.1199 z m 328.05273,-6.51543 c 0.2538,-1.2375 0.7388,-3.96946 1.0777,-6.07101 0.339,-2.10156 0.8377,-4.39796 1.1083,-5.1031 0.5645,-1.47128 -13.2555,-4.57796 -20.3593,-4.57667 l -4.25,7.8e-4 v 7.87797 7.87798 l 9.75,0.97232 c 5.3625,0.53478 10.3039,1.03969 10.981,1.12203 0.677,0.0823 1.4385,-0.8628 1.6923,-2.1003 z M 394,346.63956 c 0,-0.74823 -0.27798,-3.38848 -0.61772,-5.86721 l -0.61773,-4.50679 -5.63227,-1.19922 c -9.57948,-2.03965 -18.15702,-5.08394 -30.45805,-10.80999 -8.96881,-4.17492 -12.10591,-5.22468 -12.98535,-4.34524 -4.6469,4.6469 17.65006,18.8711 40.31112,25.71623 8.90573,2.69011 10,2.80088 10,1.01222 z m -77.00759,-10.38957 c -0.0149,-7.38871 -1.97276,-20.65892 -3.23396,-21.92012 -0.70688,-0.70688 -2.67829,-1.56385 -4.3809,-1.90437 l -3.09567,-0.61913 -0.72429,12.71346 c -0.39836,6.9924 -0.34928,13.06729 0.10906,13.49974 1.09691,1.03497 4.07238,1.72126 8.08335,1.86442 3.11077,0.11103 3.24967,-0.0446 3.24241,-3.634 z m -50.21419,-12.5 c 0.15302,-7.5625 0.0182,-13.75 -0.29966,-13.75 -1.1881,0 -6.16691,2.91956 -7.29328,4.27675 -1.02401,1.23386 -7.16267,20.9152 -7.17908,23.01706 -0.003,0.43659 3.2563,0.66159 7.2438,0.5 l 7.25,-0.29381 z m 25.76806,12.94995 c 0.0621,-0.10997 -0.0864,-6.3483 -0.33,-13.86294 -0.49145,-15.1623 -0.29197,-14.79111 -7.96628,-14.82336 -2.42577,-0.0102 -3.2554,0.43017 -3.27128,1.73635 -0.0117,0.9625 -0.64871,7.36694 -1.41557,14.23209 -0.76687,6.86514 -1.1462,12.88353 -0.84296,13.37418 0.43941,0.71099 13.40169,0.0957 13.82609,-0.65632 z m 401.27501,-20.33202 c 1.2788,-3.66423 1.9325,-7.01413 1.4608,-7.48585 -1.0171,-1.01704 -22.8764,-10.88208 -24.113,-10.88208 -0.8087,0 -6.1631,18.10138 -5.576,18.85058 0.3447,0.43983 22.3692,5.88833 24.4102,6.03868 0.9912,0.073 2.2919,-2.14871 3.818,-6.52133 z m -307.01082,-3.61969 c 0.38385,-4.63849 -0.77877,-5.18886 -13.0036,-6.15577 -4.78122,-0.37817 -11.74975,-1.53515 -15.48561,-2.57107 -3.73587,-1.03593 -6.93336,-1.74263 -7.10554,-1.57045 -0.17218,0.17218 -0.0124,1.51079 0.35497,2.97469 1.31662,5.2458 18.78471,11.56963 30.92931,11.19707 3.87521,-0.11888 4.00969,-0.23975 4.31047,-3.87447 z M 337.25,305.91962 c 3.59911,-4.40367 1.03052,-10.37655 -4.95994,-11.53361 -2.68641,-0.51888 -3.70575,-0.12417 -6.25,2.42007 -3.84886,3.84887 -3.94798,7.33458 -0.29037,10.21165 3.37666,2.65608 8.85993,2.13251 11.50031,-1.09811 z m 369.74999,-12.1875 c 0,-0.69732 1.2031,-3.03836 2.6735,-5.2023 l 2.6736,-3.93445 -6.4236,-5.89062 c -9.4202,-8.63869 -16.8993,-14.14599 -17.8028,-13.10926 -1.7724,2.03379 -9.1207,14.43001 -9.1207,15.38624 0,0.90758 25.3236,13.90545 27.25,13.98665 0.4125,0.0174 0.75,-0.53893 0.75,-1.23626 z M 349.04601,277.61581 c -1.67531,-4.21734 -3.0529,-8.66867 -3.06132,-9.89185 -0.0328,-4.75663 -1.45878,-5.17544 -6.11777,-1.79672 -2.4018,1.7418 -5.90723,4.15823 -7.78983,5.36983 -1.8826,1.21161 -3.5742,2.66523 -3.75912,3.23028 -0.18491,0.56504 2.52059,2.30153 6.01222,3.85885 3.49164,1.55732 8.78324,4.33824 11.75912,6.17982 3.77098,2.33362 5.5004,2.94972 5.7067,2.033 0.1628,-0.72344 -1.0747,-4.76588 -2.75,-8.98321 z m 37.47311,-2.00614 c 1.59669,-1.16753 1.96632,-3.00731 2.30667,-11.48089 l 0.40529,-10.09056 4.88446,-0.64794 c 2.68645,-0.35638 4.89164,-1.15248 4.90042,-1.76912 0.0552,-3.87969 -3.55571,-20.61304 -4.44004,-20.5755 -0.59176,0.0251 -8.05092,1.75157 -16.57592,3.83655 -13.42339,3.28299 -15.66549,4.11421 -16.73526,6.20433 -1.67491,3.27244 -1.61102,18.15836 0.0953,22.19557 2.73957,6.48206 9.4395,11.33431 17.54296,12.70504 2.52837,0.42768 4.84853,0.83053 5.15591,0.89522 0.30738,0.0647 1.41449,-0.50802 2.46025,-1.2727 z m 340.22487,-9.30736 4.5656,-4.69768 -1.8041,-3.05232 c -0.9923,-1.67878 -3.7367,-6.44716 -6.0986,-10.59642 -6.8783,-12.08336 -6.5849,-12.00996 -15.4069,-3.85427 l -7.5,6.9335 10.3938,9.98243 c 5.7165,5.49034 10.5942,9.98244 10.8392,9.98244 0.245,0 2.4999,-2.11396 5.011,-4.69768 z m -403.74842,-7.49466 c 4.07329,-1.54226 8.74295,-5.56726 12.07129,-10.40484 l 3.12168,-4.53721 -1.6899,-8.51627 c -0.92945,-4.68395 -1.40915,-10.01284 -1.066,-11.84199 1.18982,-6.34225 10.19551,-12.09449 39.0657,-24.95258 l 5.99835,-2.67151 -2.49835,-2.0116 c -6.02435,-4.85063 -11.0517,-6.37013 -21.07857,-6.37091 -9.19248,-7.2e-4 -9.9004,0.16115 -17.49101,3.99925 -8.99379,4.5476 -16.6222,11.50776 -19.45672,17.7523 -2.33817,5.15105 -2.52965,13.80899 -0.49204,22.2477 0.79682,3.3 1.46479,7.3744 1.48438,9.05422 0.0399,3.42492 -3.86104,10.11187 -9.61344,16.47909 l -3.80912,4.21624 6.47909,-0.7485 c 3.5635,-0.41168 7.60209,-1.1737 8.97466,-1.69339 z m 429.82442,-11.80766 6.32,-3.5 -0.5939,-4 c -0.9029,-6.08223 -4.1686,-20.45582 -4.7883,-21.07551 -0.3014,-0.30141 -5.1256,1.74912 -10.7204,4.55673 l -10.1724,5.10475 4.4538,8.20702 c 6.6444,12.24378 8.1307,14.71781 8.6812,14.45014 0.275,-0.13372 3.344,-1.81813 6.82,-3.74313 z M 296.01187,221.02713 c 0.0148,-9.36208 1.67329,-15.73253 6.47478,-24.86979 3.70131,-7.0436 12.0417,-17.37902 18.19588,-22.54836 12.72593,-10.68942 39.48626,-13.74942 54.59234,-6.24254 l 5.22513,2.5966 4.5,-4.99844 c 2.475,-2.74914 6.00073,-6.07953 7.83496,-7.40087 3.13869,-2.26104 3.21964,-2.46415 1.37553,-3.45109 -1.07768,-0.57676 -5.95342,-2.21881 -10.83496,-3.649 -16.55316,-4.84974 -39.55471,-4.39021 -54.08934,1.08061 -12.1795,4.58435 -29.41165,17.85117 -36.16139,27.84022 -1.44364,2.13647 -3.41805,5.06147 -4.38757,6.5 -4.97611,7.38334 -10.1474,32.18045 -9.54146,45.75281 l 0.22936,5.13729 8.28743,-4.11015 L 296,228.55428 Z m 490.23592,14.25569 c 3.7112,-0.31489 7.1722,-1.08402 7.6911,-1.70917 0.5188,-0.62516 1.6025,-4.27247 2.4082,-8.10515 0.8057,-3.83268 1.7692,-8.15871 2.141,-9.61339 0.6515,-2.54932 0.4886,-2.67064 -4.5083,-3.3579 -2.8514,-0.39217 -8.5746,-0.39534 -12.7181,-0.007 l -7.5338,0.70597 0.6786,8.98972 c 0.9644,12.77535 1.5199,15.05801 3.4795,14.29663 0.8877,-0.34492 4.6505,-0.88477 8.3618,-1.19966 z m -411.7495,-13.2621 c 33.17694,-13.3742 35.578,-14.88427 33.95411,-21.35438 l -0.6284,-2.50374 -6.662,3.02638 c -14.10983,6.40975 -38.94307,16.51259 -44.9802,18.29919 -7.02338,2.07846 -10.1818,5.07089 -10.1818,9.64668 0,2.13291 0.47829,2.86514 1.87153,2.86514 1.02934,0 13.01138,-4.49067 26.62676,-9.97927 z m -41.6799,-37.57981 c 1.27512,-0.90061 2.11126,-1.84461 1.85809,-2.09777 -1.05605,-1.05605 -7.51829,2.67884 -12.17648,7.03747 l -5,4.67845 6.5,-3.99034 c 3.575,-2.19469 7.54328,-4.7272 8.81839,-5.62781 z"
       id="path1" />
    <text
       xml:space="preserve"
       style="font-style:normal;font-variant:normal;font-weight:normal;font-stretch:normal;font-size:108.838px;font-family:Cheque;-inkscape-font-specification:'Cheque, Normal';font-variant-ligatures:normal;font-variant-caps:normal;font-variant-numeric:normal;font-variant-east-asian:normal;text-align:start;writing-mode:lr-tb;direction:ltr;text-anchor:start;fill:none;fill-opacity:1;stroke:#ffffff;stroke-width:119.978;stroke-dasharray:none;stroke-opacity:1"
       x="77.227379"
       y="211.49136"
       id="text10"
       transform="scale(1.1545839,0.86611293)"><tspan
         sodipodi:role="line"
         id="tspan14">VIA</tspan><tspan
         sodipodi:role="line"
         id="tspan15">TRIUMPHALISs</tspan></text>
  </g>
  <circle
     style="display:inline;fill:none;fill-rule:evenodd;stroke:#ffffff;stroke-width:18.8881;stroke-dasharray:none;stroke-opacity:1"
     id="path7"
     cx="512"
     cy="511.99997"
     r="472.55597"
     inkscape:label="cerchio" />
  <g
     inkscape:groupmode="layer"
     id="layer3"
     inkscape:label="testo">
    <text
       xml:space="preserve"
       id="text8"
       style="text-align:start;writing-mode:lr-tb;direction:ltr;white-space:pre;shape-inside:url(#rect8);display:inline;fill:none;fill-opacity:1;stroke:#ffffff;stroke-width:13.2283;stroke-dasharray:none;stroke-opacity:1" />
  </g>
</svg>
